<svg xmlns="http://www.w3.org/2000/svg" viewBox="0 0 64 64" role="img" aria-labelledby="title desc"><title id="title">VaTViT V logo</title><desc id="desc">A V monogram made from rising candlesticks.</desc><defs><linearGradient id="g" x1="12" y1="12" x2="52" y2="52"><stop stop-color="#FFF3A6"/><stop offset="1" stop-color="#E7A91B"/></linearGradient><linearGradient id="m" x1="32" y1="52" x2="54" y2="12"><stop stop-color="#27C982"/><stop offset="1" stop-color="#B0FFD7"/></linearGradient></defs><rect x="3" y="3" width="58" height="58" rx="15" fill="#0A1118" stroke="#3B5360" stroke-width="2"/><path d="M12 13L24 47L32 35L40 47L52 13" stroke="#020508" stroke-width="10" stroke-linecap="round" stroke-linejoin="round"/><path d="M12 13L24 47L32 35" stroke="url(#g)" stroke-width="5" stroke-linecap="round" stroke-linejoin="round"/><path d="M32 35L40 47L52 13" stroke="url(#m)" stroke-width="5" stroke-linecap="round" stroke-linejoin="round"/><g stroke="#FFD84F" stroke-width="1.8" stroke-linecap="round"><path d="M18 18V34M14 22H22M14 30H22"/><path d="M25 31V43M21 35H29M21 41H29"/></g><g stroke="#70F5B0" stroke-width="1.8" stroke-linecap="round"><path d="M37 31V43M33 35H41M33 41H41"/><path d="M46 17V31M42 21H50M42 28H50"/></g></svg>
