<svg xmlns="http://www.w3.org/2000/svg" width="1200" height="630" viewBox="0 0 1200 630" role="img" aria-labelledby="title desc"><title id="title">VaTViT - Trading Platform for Modern Markets</title><desc id="desc">A V-shaped candlestick logo for modern traders.</desc><defs><linearGradient id="bg" x1="0" y1="0" x2="1200" y2="630"><stop stop-color="#0A0E15"/><stop offset="1" stop-color="#172431"/></linearGradient><linearGradient id="gold" x1="100" y1="100" x2="300" y2="300"><stop stop-color="#FFF08A"/><stop offset="1" stop-color="#F5B91E"/></linearGradient><linearGradient id="green" x1="220" y1="300" x2="340" y2="90"><stop stop-color="#25C982"/><stop offset="1" stop-color="#9CFFD1"/></linearGradient></defs><rect width="1200" height="630" fill="url(#bg)"/><path d="M0 520H1200" stroke="#334858" stroke-width="2"/><circle cx="1030" cy="90" r="230" fill="#25C982" fill-opacity=".06"/><circle cx="180" cy="580" r="260" fill="#F5B91E" fill-opacity=".06"/><rect x="92" y="112" width="176" height="176" rx="38" fill="#0E1720" stroke="#334858" stroke-width="4"/><path d="M117 139L156 260L176 218" fill="none" stroke="url(#gold)" stroke-width="13" stroke-linecap="round" stroke-linejoin="round"/><path d="M176 218L198 260L244 139" fill="none" stroke="url(#green)" stroke-width="13" stroke-linecap="round" stroke-linejoin="round"/><g stroke="#FFD34E" stroke-width="5" stroke-linecap="round"><path d="M137 162V211M127 174H147M127 198H147"/><path d="M163 205V245M153 216H173M153 235H173"/></g><g stroke="#63F5B0" stroke-width="5" stroke-linecap="round"><path d="M201 198V245M191 209H211M191 231H211"/><path d="M226 143V190M216 154H236M216 176H236"/></g><circle cx="176" cy="218" r="7" fill="#FFF4B0" stroke="#0A1119" stroke-width="4"/><text x="322" y="218" fill="#FFD34E" font-family="Arial, sans-serif" font-size="78" font-weight="700" letter-spacing="3">VaTViT</text><text x="96" y="392" fill="#F4F1E8" font-family="Arial, sans-serif" font-size="58" font-weight="700">Trade smarter.</text><text x="96" y="462" fill="#63F5B0" font-family="Arial, sans-serif" font-size="58" font-weight="700">With clarity.</text><text x="98" y="535" fill="#9AA0A8" font-family="Arial, sans-serif" font-size="23" letter-spacing="2">THE FINANCIAL OPERATING SYSTEM FOR MODERN MARKETS</text></svg>
