<svg xmlns="http://www.w3.org/2000/svg" width="640" height="180" viewBox="0 0 640 180" fill="none" role="img" aria-labelledby="title desc"><title id="title">VaTViT V candlestick wordmark</title><desc id="desc">A clean VaTViT wordmark with a V-shaped candlestick emblem.</desc><defs><linearGradient id="panel" x1="0" y1="0" x2="640" y2="180"><stop stop-color="#101A22"/><stop offset="1" stop-color="#050709"/></linearGradient><linearGradient id="gold" x1="30" y1="20" x2="145" y2="145"><stop stop-color="#FFF3A6"/><stop offset="1" stop-color="#E7A91B"/></linearGradient><linearGradient id="green" x1="95" y1="145" x2="160" y2="20"><stop stop-color="#27C982"/><stop offset="1" stop-color="#B0FFD7"/></linearGradient></defs><rect width="640" height="180" rx="18" fill="url(#panel)" stroke="#2E424D" stroke-width="2"/><g transform="translate(26 18)"><path d="M12 12L44 112L69 76L94 112L126 12" stroke="#020508" stroke-width="23" stroke-linecap="round" stroke-linejoin="round"/><path d="M12 12L44 112L69 76" stroke="url(#gold)" stroke-width="12" stroke-linecap="round" stroke-linejoin="round"/><path d="M69 76L94 112L126 12" stroke="url(#green)" stroke-width="12" stroke-linecap="round" stroke-linejoin="round"/><g stroke="#FFD84F" stroke-width="4" stroke-linecap="round"><path d="M28 25V62"/><path d="M19 35H37M19 53H37"/><path d="M50 62V99"/><path d="M41 72H59M41 90H59"/></g><g stroke="#70F5B0" stroke-width="4" stroke-linecap="round"><path d="M84 61V99"/><path d="M75 71H93M75 90H93"/><path d="M111 22V60"/><path d="M102 32H120M102 50H120"/></g><circle cx="69" cy="76" r="7" fill="#FFF6B7" stroke="#071018" stroke-width="4"/></g><text x="188" y="116" fill="#F7F7F5" font-family="Calibri,Arial,sans-serif" font-size="74" font-weight="700" letter-spacing="-2">Va</text><text x="292" y="116" fill="#F7F7F5" font-family="Calibri,Arial,sans-serif" font-size="74" font-weight="700" letter-spacing="-2">T</text><text x="347" y="116" fill="#F7D66A" font-family="Calibri,Arial,sans-serif" font-size="74" font-weight="700" letter-spacing="-2">V</text><text x="409" y="116" fill="#F7F7F5" font-family="Calibri,Arial,sans-serif" font-size="74" font-weight="700" letter-spacing="-2">i</text><text x="448" y="116" fill="#F7D66A" font-family="Calibri,Arial,sans-serif" font-size="74" font-weight="700" letter-spacing="-2">T</text><circle cx="379" cy="55" r="8" fill="#70F5B0"/></svg>
