<svg xmlns="http://www.w3.org/2000/svg" width="640" height="180" viewBox="0 0 640 180" fill="none" role="img" aria-labelledby="title desc"><title id="title">VaTViT V candlestick wordmark</title><desc id="desc">A clean VaTViT wordmark with a single V emblem and rising candles.</desc><defs><linearGradient id="panel" x1="0" y1="0" x2="640" y2="180"><stop stop-color="#101A22"/><stop offset="1" stop-color="#050709"/></linearGradient><linearGradient id="gold" x1="35" y1="20" x2="95" y2="140"><stop stop-color="#FFF3A6"/><stop offset="1" stop-color="#E7A91B"/></linearGradient><linearGradient id="green" x1="95" y1="140" x2="155" y2="20"><stop stop-color="#27C982"/><stop offset="1" stop-color="#B0FFD7"/></linearGradient></defs><rect width="640" height="180" rx="18" fill="url(#panel)" stroke="#2E424D" stroke-width="2"/><g transform="translate(24 18)"><path d="M14 12L72 130L130 12" stroke="#020508" stroke-width="25" stroke-linecap="round" stroke-linejoin="round"/><path d="M14 12L72 130" stroke="url(#gold)" stroke-width="13" stroke-linecap="round"/><path d="M72 130L130 12" stroke="url(#green)" stroke-width="13" stroke-linecap="round"/><g stroke="#70F5B0" stroke-width="4" stroke-linecap="round"><path d="M91 64V103"/><path d="M82 74H100M82 94H100"/><path d="M115 28V68"/><path d="M106 38H124M106 58H124"/><path d="M139 0V38"/><path d="M130 10H148M130 29H148"/></g><circle cx="72" cy="130" r="7" fill="#FFF6B7" stroke="#071018" stroke-width="4"/></g><text x="188" y="116" fill="#F7F7F5" font-family="Calibri,Arial,sans-serif" font-size="74" font-weight="700" letter-spacing="-2">Va</text><text x="292" y="116" fill="#F7F7F5" font-family="Calibri,Arial,sans-serif" font-size="74" font-weight="700" letter-spacing="-2">T</text><text x="347" y="116" fill="#F7D66A" font-family="Calibri,Arial,sans-serif" font-size="74" font-weight="700" letter-spacing="-2">V</text><text x="409" y="116" fill="#F7F7F5" font-family="Calibri,Arial,sans-serif" font-size="74" font-weight="700" letter-spacing="-2">i</text><text x="448" y="116" fill="#F7D66A" font-family="Calibri,Arial,sans-serif" font-size="74" font-weight="700" letter-spacing="-2">T</text><circle cx="379" cy="55" r="8" fill="#70F5B0"/></svg>
