<svg xmlns="http://www.w3.org/2000/svg" width="640" height="220" viewBox="0 0 640 220" fill="none" role="img" aria-labelledby="title desc"><title id="title">VaTViT trading logo</title><desc id="desc">A white and gold VaTViT wordmark with an upward candlestick signal.</desc><rect width="640" height="220" rx="18" fill="#050607"/><g transform="translate(34 18)"><path d="M0 0H50L125 132C137 153 155 153 169 132L186 106C193 95 211 95 218 106L231 132C244 154 263 154 275 132L348 0H397L302 164C278 205 239 207 216 166L202 141L187 166C164 207 126 205 102 164L0 0Z" fill="#F7F7F5"/><g stroke="#8BFF45" stroke-width="8" stroke-linecap="round"><path d="M274 99V48"/><path d="M274 61H274"/><path d="M274 39V14"/><path d="M323 77V26"/><path d="M323 38V10"/><path d="M369 57V6"/><path d="M369 18V0"/></g><g fill="#8BFF45"><rect x="264" y="48" width="20" height="30" rx="3"/><rect x="313" y="26" width="20" height="32" rx="3"/><rect x="359" y="6" width="20" height="34" rx="3"/></g></g><text x="34" y="204" fill="#F7F7F5" font-family="Calibri,Arial,sans-serif" font-size="64" font-weight="700" letter-spacing="-2">Va</text><text x="150" y="204" fill="#F7F7F5" font-family="Calibri,Arial,sans-serif" font-size="64" font-weight="700" letter-spacing="-2">T</text><text x="202" y="204" fill="#F7D66A" font-family="Calibri,Arial,sans-serif" font-size="64" font-weight="700" letter-spacing="-2">V</text><text x="255" y="204" fill="#F7F7F5" font-family="Calibri,Arial,sans-serif" font-size="64" font-weight="700" letter-spacing="-2">i</text><text x="290" y="204" fill="#F7D66A" font-family="Calibri,Arial,sans-serif" font-size="64" font-weight="700" letter-spacing="-2">T</text><circle cx="267" cy="153" r="7" fill="#8BFF45"/></svg>
